<svg width="14" height="17" viewBox="0 0 14 17" fill="none" xmlns="http://www.w3.org/2000/svg">
    <path
        d="M13.7875 16.496H5.14747V14.36C5.14747 14.36 5.98747 14.624 6.92347 14.624C8.00347 14.624 8.91547 14.408 9.70747 13.952L9.44347 13.496C8.74747 13.904 7.90747 14.12 6.92347 14.12C3.99547 14.12 2.81947 11.456 2.81947 10.352C2.81947 9.512 2.96347 8.24 3.70747 7.112L3.27547 6.848C2.48347 8.072 2.31547 9.44 2.31547 10.352C2.31547 10.472 2.31547 10.568 2.33947 10.688C1.40347 10.592 0.731469 9.992 0.347469 9.272L5.07547 0.584L13.7875 16.496Z"
        fill="white" />
</svg>
    